<?xml version="1.0" encoding="UTF-8" standalone="no"?>
<!-- Created with Inkscape (http://www.inkscape.org/) -->

<svg
   width="73.310577mm"
   height="53.02618mm"
   viewBox="0 0 73.310577 53.02618"
   version="1.1"
   id="svg5"
   sodipodi:docname="ship.svg"
   inkscape:export-filename="/home/vaughanm/Documents/godot/vocab/images/ship.png"
   inkscape:export-xdpi="960"
   inkscape:export-ydpi="960"
   inkscape:version="1.1.2 (0a00cf5339, 2022-02-04)"
   xmlns:inkscape="http://www.inkscape.org/namespaces/inkscape"
   xmlns:sodipodi="http://sodipodi.sourceforge.net/DTD/sodipodi-0.dtd"
   xmlns="http://www.w3.org/2000/svg"
   xmlns:svg="http://www.w3.org/2000/svg">
  <sodipodi:namedview
     id="namedview15"
     pagecolor="#ffffff"
     bordercolor="#666666"
     borderopacity="1.0"
     inkscape:pageshadow="2"
     inkscape:pageopacity="0.0"
     inkscape:pagecheckerboard="0"
     inkscape:document-units="mm"
     showgrid="false"
     inkscape:zoom="4.4457992"
     inkscape:cx="138.4453"
     inkscape:cy="100.20695"
     inkscape:window-width="1916"
     inkscape:window-height="1044"
     inkscape:window-x="0"
     inkscape:window-y="18"
     inkscape:window-maximized="1"
     inkscape:current-layer="svg5" />
  <defs
     id="defs2" />
  <g
     id="layer1"
     transform="translate(-14.873654,-101.67327)">
    <rect
       style="fill:#ff0000;fill-opacity:1;stroke:#000000;stroke-width:1;stroke-miterlimit:4;stroke-dasharray:none"
       id="rect3383"
       width="1.3002684"
       height="9.782609"
       x="42.235535"
       y="102.17327" />
    <rect
       style="fill:#ff0000;fill-opacity:1;stroke:#000000;stroke-width:1;stroke-miterlimit:4;stroke-dasharray:none"
       id="rect3383-0"
       width="1.3002684"
       height="9.782609"
       x="60.120625"
       y="102.17327" />
    <path
       id="rect846"
       style="fill:#007fff;fill-opacity:1;stroke:#000000"
       d="m 46.158892,148.39476 -7.236825,-0.0678 0.32486,-34.65404 c 0,0 -0.278375,-3.89314 3.45589,-3.86176 3.734269,0.031 3.780935,3.9296 3.780935,3.9296 z" />
    <path
       id="rect846-4"
       style="fill:#007fff;fill-opacity:1;stroke:#000000"
       d="m 63.627529,148.61522 -7.236825,-0.0678 0.32486,-34.65404 c 0,0 -0.278375,-3.89314 3.45589,-3.86176 3.734269,0.031 3.780935,3.9296 3.780935,3.9296 z" />
    <path
       id="rect846-7"
       style="fill:#ff0000;fill-opacity:1;stroke:#000000;stroke-width:1;stroke-miterlimit:4;stroke-dasharray:none"
       d="m 56.390704,148.54742 -10.30796,-0.0783 0.30669,-34.55938 c 0,0 -0.240477,-9.91641 5.07852,-9.88021 5.319002,0.0358 5.24761,9.88021 5.24761,9.88021 z" />
    <path
       id="rect1416"
       style="fill:#7f7f7f;fill-opacity:1;stroke:#000000"
       d="m 38.922066,148.32697 h 7.036687 l 1.780633,5.65203 H 37.270951 Z" />
    <path
       id="rect1416-5"
       style="fill:#7f7f7f;fill-opacity:1;stroke:#000000"
       d="m 63.571695,148.54742 h -7.036687 l -1.780633,5.65203 H 65.22281 Z" />
    <path
       id="rect2037"
       style="fill:#ff0000;stroke:#000000"
       d="m 39.246927,116.81262 -0.286221,28.16444 -23.022262,0.13924 z" />
    <path
       id="rect2037-6"
       style="fill:#ff0000;stroke:#000000"
       d="m 63.810959,116.81262 0.286221,28.16444 23.022262,0.13924 z" />
    <path
       id="path5489"
       style="fill:#00c0ff;fill-opacity:1;stroke:#000000;stroke-width:0.833158"
       d="m 54.383573,108.33398 h -5.789409 c -3e-6,-1.6455 1.296002,-2.97944 2.894705,-2.97944 1.598703,0 2.894707,1.33394 2.894704,2.97944 z" />
  </g>
</svg>
